# xmcd CD database file
#
# Track frame offsets:
#	183
#	11703
#	23860
#	36580
#	47165
#	57788
#	69595
#	89283
#	99808
#	110408
#	121440
#	132995
#	145530
#	157728
#	168853
#	182748
#	194243
#	206905
#
# Disc length: 2958 seconds
#
# Revision: 1
# Processed by: cddbd v1.5.2PL0 Copyright (c) Steve Scherf et al.
# Submitted via: CDex 1.84
#
DISCID=fb0b8c12
DTITLE=Sampler - Country - Let's Go !!! - CD 1
DYEAR=1990
DGENRE=Country
TTITLE0=Don Gibson - Oh, Lonesome Me
TTITLE1=Johnny Cash - Next In Line
TTITLE2=Lee Hazlewood - These Boots Are Made For Walking
TTITLE3=Waylon Jennings - Sally Was A Good Old Girl
TTITLE4=Slim Whitman - Rose Marie
TTITLE5=Hank Williams - Settin? The Woods On Fire
TTITLE6=Mary Robbins - El Paso
TTITLE7=Johnny Russel - Jambalaya
TTITLE8=Stonewall Jackson - Slowly
TTITLE9=Carl Smith - Hey, Joe
TTITLE10=Kitty Wells - Heartbreak U. S. A.
TTITLE11=Bobby Helms - Fraulein
TTITLE12=Hank Thompson - The Wild Side Of Life
TTITLE13=Roger Miller - King Of The Road
TTITLE14=Jimmy Dean - Big Bad John
TTITLE15=Kenny Rogers - Me And Bobby McGee
TTITLE16=Ernest Tubb with Melba Montgomery - Sweet Thang
TTITLE17=Kingston Trio - Tom Dooley
EXTD=YEAR: 1990
EXTT0=
EXTT1=
EXTT2=
EXTT3=
EXTT4=
EXTT5=
EXTT6=
EXTT7=
EXTT8=
EXTT9=
EXTT10=
EXTT11=
EXTT12=
EXTT13=
EXTT14=
EXTT15=
EXTT16=
EXTT17=
PLAYORDER=
